<svg width="463" height="151" viewBox="0 0 463 151" fill="none" xmlns="http://www.w3.org/2000/svg">
<path d="M37.4091 31.7479V29.3532H76.0691V31.7465C75.4411 31.7465 74.8398 31.7972 74.2491 31.7385C71.0931 31.4265 68.3798 33.8025 67.7824 36.4679C67.3325 38.4983 67.1 40.5709 67.0891 42.6505C67.0224 54.5052 67.0517 66.3599 67.0491 78.2145C67.0491 86.3798 67.1104 94.5438 67.0224 102.708C66.9904 106.492 66.3387 110.245 65.0931 113.819C62.8224 120.312 58.2891 124.298 51.6371 125.889C47.3691 126.91 43.0411 127.228 38.6771 126.653C32.3531 125.821 26.0971 120.46 24.5838 114.566C23.9817 112.27 24.0558 109.849 24.7971 107.593C25.7931 104.535 27.9131 102.737 31.0638 102.1C35.1011 101.281 38.7491 102.78 40.6851 106.076C43.1304 110.238 41.6984 118.25 33.7624 118.48C33.3464 118.493 32.9291 118.481 32.4998 118.481C32.2424 119.512 32.5718 120.304 33.0851 121.032C34.0958 122.466 35.5331 123.356 37.2184 123.572C38.6958 123.761 40.2424 123.729 41.7198 123.521C44.8958 123.073 46.4344 120.908 47.1624 117.964C47.8931 115.013 48.2024 112.013 48.2371 108.988C48.3171 102.033 48.3838 95.0785 48.3958 88.1225C48.4198 74.0305 48.4197 59.9385 48.3877 45.8452C48.3811 43.1585 48.2398 40.4679 48.0398 37.7892C47.8398 35.1132 45.7838 32.7732 43.1571 32.1185C42.2864 31.9012 41.3731 31.8159 40.4731 31.7612C39.4851 31.7025 38.4904 31.7479 37.4091 31.7479Z" fill="#ED1C24"/>
<path d="M42.1758 60.0732C41.6011 62.3345 41.1918 64.7625 40.3585 67.0332C39.0958 70.4732 36.7091 72.8492 32.9131 73.4305C31.3425 73.6705 29.7758 73.5999 28.2851 72.9492C25.4985 71.7332 24.3865 68.5878 25.7878 65.8825C27.1238 63.3052 30.9078 63.1345 32.4891 65.5825C33.2785 66.8039 32.8692 68.5118 31.6225 69.1998C30.9385 69.5772 30.2691 69.5719 29.7158 68.9892C29.1425 68.3839 28.9825 67.6319 29.4145 66.9039C29.8945 66.0959 30.6011 66.2359 31.2878 66.7079C31.4985 65.4679 30.5678 64.4385 29.3278 64.4758C28.703 64.501 28.1067 64.7441 27.6425 65.163C27.1782 65.5819 26.8754 66.1502 26.7865 66.7692C26.3358 70.1025 28.4465 72.1678 31.7892 71.8078C35.8292 71.3732 38.2611 69.0385 39.2345 65.2985C39.8878 62.7785 40.0531 60.1252 40.3731 57.5252C40.4398 56.9785 40.3238 56.3612 40.1291 55.8359C38.8651 52.4385 36.4278 50.0572 33.3491 48.0759C33.7051 49.4612 34.0958 50.6918 34.3305 51.9518C35.1505 56.3585 32.3065 60.6585 27.9838 61.6252C23.0078 62.7385 17.7785 57.7585 18.6545 52.7425C19.1971 49.6359 23.1185 47.4705 26.0372 48.6652C27.5198 49.2718 28.2892 50.8252 27.9158 52.4625C27.6065 53.8185 26.1918 54.8439 24.7252 54.7759C23.8678 54.7359 23.2411 54.1759 23.1878 53.4025C23.1318 52.5745 23.6745 51.9305 24.5532 51.8052C24.9118 51.7519 25.2852 51.7732 25.6332 51.6852C26.1972 51.5479 26.8972 51.3412 26.7772 50.6505C26.7052 50.2399 26.1811 49.7385 25.7505 49.5892C23.3438 48.7518 20.3838 50.8145 20.2358 53.3665C20.0825 56.0398 22.3825 58.8518 25.2892 59.5398C28.8692 60.3905 32.6065 57.4132 32.8012 53.5919C32.9612 50.3919 31.5785 47.9425 29.0398 46.1878C27.6931 45.2585 26.1651 44.5239 24.6251 43.9612C21.1945 42.7065 18.1705 40.9039 15.9705 37.9479C12.8051 33.6932 12.1425 28.9252 14.5598 24.2852C17.1185 19.3745 21.1691 16.0186 27.0265 15.4452C34.8611 14.6772 41.0798 17.8079 46.3318 23.3199C47.3091 24.3465 48.1891 25.4652 49.1798 26.6172L48.7265 27.0919C46.8158 25.5025 45.0638 23.9239 43.1865 22.5132C40.2878 20.3359 37.1465 18.6305 33.4918 18.0559C29.0651 17.3612 25.3012 19.7865 24.3745 23.9798C23.9865 25.7358 24.4612 27.2372 25.9145 28.3199C27.4211 29.4425 29.0932 29.7812 30.8532 28.9292C32.1865 28.2839 32.9558 26.5319 32.6158 25.0825C32.4451 24.3585 32.0425 24.0199 31.1065 23.8452C31.1678 24.2052 31.2731 24.5479 31.2758 24.8919C31.2811 25.8452 30.5158 26.7345 29.5451 26.9612C28.7318 27.1505 27.8558 26.6985 27.3705 25.8385C26.9025 25.0079 27.0585 24.0585 27.7785 23.3585C28.8172 22.3532 30.7011 22.1345 32.0985 22.8612C33.3491 23.5105 33.9811 24.9092 33.6478 26.5079C33.1918 28.6945 31.9038 30.2199 29.7451 30.8625C27.5918 31.5025 25.6251 31.1665 23.9985 29.4719C21.1505 26.5012 21.3692 22.1945 24.5372 19.3345C24.9332 18.9745 25.3585 18.6506 25.8251 18.2666C20.4211 19.4919 15.5292 24.0732 14.9158 29.2852C14.4985 32.8318 15.7678 35.6985 18.3412 38.0225C21.2412 40.6399 24.7078 42.1425 28.5238 42.8519C30.4131 43.2039 32.3505 43.3319 34.1625 42.6279C35.2825 42.1919 36.3398 41.4745 37.2691 40.6945C38.3265 39.8119 38.1691 38.6079 37.6358 37.4505C37.1558 36.4105 36.0785 35.7879 34.8278 35.8465C35.4265 36.5452 35.9305 37.2758 35.5798 38.2278C35.3025 38.9798 34.7931 39.5345 33.9465 39.6078C32.9331 39.6945 32.2091 39.1972 31.7065 38.3532C31.2038 37.5039 31.2931 36.6758 31.8785 35.8998C33.5851 33.6318 37.2905 33.9265 38.6158 36.4359C39.7585 38.5945 38.9918 41.3385 36.8585 42.7145C35.2318 43.7639 33.3851 44.0518 31.5145 44.2558L30.7705 44.3412C32.0398 45.1012 33.1838 45.7519 34.2905 46.4612C38.6811 49.2799 41.9678 53.0438 43.5611 58.0438C45.1385 62.9932 45.0225 67.9879 42.7011 72.6958C41.7545 74.6118 40.1865 76.2185 38.9385 77.9918C37.3772 80.2118 35.6705 82.3585 34.3598 84.7212C32.7731 87.5812 32.1691 90.7425 32.9625 94.0092C33.8105 97.4998 37.8145 99.0252 40.8211 97.0252C42.2345 96.0839 42.8051 94.6892 42.5678 93.0199C42.3238 91.3119 40.6078 90.3158 38.4478 90.7705C38.8065 91.0545 39.0865 91.2172 39.2931 91.4465C40.1291 92.3798 40.0825 93.3891 39.1905 94.2558C38.4211 95.0025 37.2598 94.9758 36.4305 94.1452C35.5998 93.3078 35.2625 92.2838 35.6905 91.1585C36.1638 89.9118 37.2065 89.2599 38.4771 89.1519C41.6931 88.8799 43.8238 90.3905 44.2171 93.1119C44.7065 96.5212 43.0305 99.0265 39.7358 99.8078C35.6198 100.784 32.3452 98.5732 31.5252 94.2985C31.0052 91.5918 31.2785 88.9478 32.0012 86.3225C32.0945 85.9798 32.1745 85.6332 32.3292 85.0199C30.7732 86.1359 29.3945 87.0825 28.0625 88.0892C24.2211 90.9958 20.5505 94.0998 17.4585 97.8172C15.4105 100.281 14.1678 103.15 13.6118 106.304C13.3145 107.993 13.6372 109.501 15.1518 110.552C16.0892 111.202 17.0745 111.224 18.0652 110.704C19.0358 110.193 19.2718 109.293 18.7051 108.213C18.3478 108.927 17.9758 109.657 17.0158 109.232C16.2958 108.912 16.0958 108.297 16.3012 107.569C16.6718 106.253 18.2078 105.725 19.2825 106.569C20.3985 107.448 20.8051 108.655 20.6198 110.036C20.4558 111.253 19.6865 112.041 18.5891 112.507C15.8811 113.656 12.7092 112.049 11.9545 109.14C11.8118 108.588 11.7638 108.012 11.6438 107.265C11.4332 107.572 11.2665 107.781 11.1358 108.01C8.48916 112.704 7.52915 117.768 7.83848 123.106C8.05048 126.768 8.86915 130.262 10.6318 133.514C13.4145 138.644 17.8132 140.884 23.5252 140.821C23.7332 140.82 23.9971 140.838 24.1371 140.725C25.9025 139.293 27.7158 137.88 28.1558 135.449C28.4091 134.042 27.3372 132.061 25.9452 131.248C24.4705 130.386 22.5625 130.421 21.4318 131.333C21.8585 131.482 22.3065 131.585 22.7051 131.784C23.8518 132.357 24.3078 133.508 23.8518 134.57C23.3878 135.661 22.2772 136.09 21.0358 135.664C18.8025 134.897 18.2078 132.397 19.8331 130.609C21.5531 128.714 24.7345 128.346 27.0838 129.769C30.9598 132.12 31.4838 136.542 28.2571 139.722C27.8305 140.141 27.3612 140.515 26.9278 140.893C29.5012 140.603 32.0638 140.24 34.6385 140.04C38.3145 139.756 41.9985 139.486 45.6585 140.284C49.0678 141.026 51.7625 142.808 53.6971 145.724C53.8438 145.946 54.0011 146.166 54.2478 146.526C56.1398 142.302 58.3118 138.377 61.8251 135.129C59.8251 134.809 58.6411 133.556 57.4518 132.3C56.3984 132.73 55.3718 133.142 54.3518 133.572C53.6585 133.862 52.9638 133.881 52.6425 133.13C52.2945 132.317 52.9558 131.92 53.5891 131.649C55.7811 130.71 57.9851 129.8 60.1811 128.872C67.3251 125.857 71.8958 120.641 73.6638 113.049C73.8051 112.442 73.7918 111.793 73.8078 111.164C73.8651 108.896 73.9038 106.628 73.9491 104.361C73.9491 104.27 73.9491 104.178 73.9558 104.089C74.0091 103.382 74.2038 102.634 75.0091 102.649C75.7664 102.665 75.9358 103.417 75.9798 104.078C76.2851 108.718 77.5198 113.092 79.5865 117.262C81.2451 120.612 83.6785 123.061 87.1971 124.377C89.5731 125.265 91.9358 125.157 94.2624 124.187C96.4131 123.291 98.0998 120.032 97.6838 117.604C97.6096 117.188 97.5193 116.775 97.4131 116.366C96.8291 114.064 95.1584 112.978 92.4798 113.356C92.9118 113.902 93.2651 114.356 93.6225 114.805C94.4038 115.788 94.4651 116.334 93.8998 117.27C93.4038 118.089 92.3771 118.497 91.3718 118.273C89.0744 117.762 88.2331 114.929 89.8558 113.084C90.9051 111.889 92.2824 111.385 93.8424 111.54C97.1384 111.865 99.2345 114.033 99.9558 117.406C100.872 121.689 97.2878 126.26 93.2518 126.878C89.5664 127.444 86.3184 126.644 83.3718 124.39C80.0571 121.856 78.0918 118.398 76.5451 114.636C76.3424 114.138 76.1478 113.636 75.8478 112.884C74.0384 122.282 68.4318 128.052 59.7651 131.061C60.2451 132.321 61.1971 132.777 62.3385 132.857C62.6238 132.877 62.9825 132.596 63.2251 132.364C65.3798 130.324 67.8091 128.791 70.8091 128.416C73.6704 128.059 76.4318 128.445 78.9131 130.014C81.2798 131.51 82.1078 134.174 81.0358 136.556C79.7358 139.436 75.9918 139.985 74.2265 137.549C73.7398 136.877 73.4745 136.144 73.8865 135.349C74.3305 134.493 75.0411 133.88 76.0251 133.912C76.4865 133.925 77.0278 134.265 77.3585 134.618C77.6385 134.916 77.6331 135.462 77.8118 135.872C77.9705 136.226 78.2118 136.544 78.4158 136.877C78.7625 136.594 79.2518 136.381 79.4371 136.016C80.1678 134.566 79.7691 133.184 78.3505 132.122C75.7265 130.167 72.8171 130.053 69.8091 130.957C67.8451 131.548 66.3024 132.806 64.9291 134.296C64.5958 134.654 64.6478 134.93 64.8358 135.329C65.8065 137.368 66.4678 139.481 66.3758 141.781C66.2745 144.309 65.1984 146.376 63.4118 148.088C63.1651 148.325 62.6651 148.296 62.2838 148.388C62.2971 148.017 62.2438 147.626 62.3451 147.281C62.4345 146.978 62.6904 146.721 62.8824 146.453C65.2558 143.122 65.2598 139.677 63.3291 135.972C58.9958 140.034 56.3758 145.162 53.5825 150.304C53.4305 149.948 53.3131 149.69 53.2091 149.429C51.4625 144.981 48.1158 142.602 43.4691 141.922C39.8105 141.388 36.1758 141.824 32.5331 142.18C29.0771 142.517 25.6131 142.904 22.1465 142.973C16.9411 143.077 12.8958 140.778 10.0798 136.389C6.57715 130.922 5.17715 124.889 5.35315 118.449C5.59182 109.764 8.9798 102.543 15.2105 96.4892C20.0958 91.7465 25.3612 87.5412 31.1172 83.9292C31.396 83.7502 31.6482 83.533 31.8665 83.2839C34.7331 80.0479 37.6492 76.8492 40.4158 73.5292C41.1118 72.6932 41.4185 71.4865 41.7518 70.4039C42.7945 67.0119 42.7771 63.5572 42.1811 60.0879C42.1678 60.0132 42.0918 59.9492 42.1758 60.0732ZM341.396 41.5012V40.2025H360.281V41.5052C359.112 41.5852 357.964 41.5932 356.838 41.7558C354.434 42.1025 353.11 43.4692 352.872 45.8679C352.728 47.3413 352.658 48.8208 352.66 50.3012C352.646 64.9985 352.65 79.6958 352.65 94.3945V95.5852C351.772 95.7825 351.161 95.7105 350.552 94.9625C338.961 80.7358 327.338 66.5358 315.721 52.3279C315.592 52.1692 315.448 52.0239 315.205 51.7545C315.176 52.1425 315.14 52.3945 315.14 52.6439C315.137 63.5919 315.13 74.5385 315.149 85.4865C315.152 86.7532 315.264 88.0225 315.397 89.2825C315.682 91.9732 317.288 93.0092 319.952 93.2865C320.874 93.3825 321.816 93.3025 322.822 93.3025V94.7198H303.936V93.3372C304.258 93.3372 304.578 93.3438 304.898 93.3372C305.654 93.3185 306.418 93.3612 307.165 93.2598C309.894 92.8905 311.262 91.3612 311.488 88.4332C311.582 87.1972 311.63 85.9558 311.632 84.7172C311.641 72.5905 311.632 60.4638 311.653 48.3372C311.654 47.5812 311.414 47.0478 310.936 46.4812C309.225 44.4598 307.322 42.7185 304.674 42.0692C303.456 41.7692 302.194 41.6465 300.896 41.4345V40.1252H301.869C306.162 40.1252 310.457 40.1412 314.75 40.1092C315.422 40.1052 315.852 40.3025 316.276 40.8252C326.929 53.9425 337.6 67.0478 348.268 80.1545C348.474 80.4078 348.688 80.6572 349.001 81.0318C349.041 80.6678 349.085 80.4492 349.085 80.2292C349.085 69.7052 349.088 59.1812 349.072 48.6572C349.063 47.6902 348.993 46.7247 348.862 45.7665C348.549 43.3612 347.318 42.0958 344.909 41.7558C343.781 41.5972 342.632 41.5865 341.396 41.5025M394.888 74.0665V72.5798H414.029C414.056 72.8185 414.098 73.0238 414.098 73.2292C414.1 73.4652 414.064 73.6998 414.042 73.9478C413.256 74.0318 412.501 74.0519 411.773 74.2039C410.224 74.5239 409.276 75.5318 408.961 77.0545C408.74 78.0877 408.616 79.1395 408.592 80.1958C408.538 83.6118 408.573 87.0292 408.532 90.4452C408.528 90.7959 408.338 91.3118 408.072 91.4652C398.709 96.8185 388.894 97.7452 378.909 93.6945C371.449 90.6678 366.862 84.6665 364.841 77.0479C361.482 64.3932 364.673 53.3545 374.312 44.4212C379.256 39.8412 385.392 38.5238 391.985 38.9518C395.078 39.1518 397.926 40.2239 400.765 41.3519C401.577 41.6745 402.4 41.9825 403.238 42.2239C404.253 42.5172 404.942 42.1439 405.304 41.1492C405.437 40.7852 405.492 40.3892 405.566 40.0052C405.633 39.6559 405.677 39.2985 405.737 38.9118H407.033L408.296 55.9878C407.464 56.2398 407.017 56.1385 406.738 55.2212C405.901 52.4652 404.752 49.8318 402.969 47.5385C399.788 43.4438 395.522 41.6559 390.4 41.6945C384.033 41.7425 379.308 44.5878 376.097 50.0265C373.524 54.3852 372.346 59.1452 372.066 64.1679C371.73 70.1745 372.544 75.9772 375.009 81.5012C377.278 86.5878 380.68 90.5665 386.085 92.4478C391.324 94.2745 396.26 93.2718 400.948 90.5705C401.142 90.4585 401.353 90.1625 401.352 89.9532C401.326 86.1132 401.344 82.2732 401.197 78.4398C401.084 75.4825 399.258 74.2478 396.421 74.0718C395.944 74.0425 395.462 74.0678 394.888 74.0678M174.21 38.9625L175.458 57.3185C174.581 57.6119 174.198 57.4078 173.916 56.5718C173.371 54.941 172.721 53.3475 171.969 51.8012C169.01 45.7825 164.188 42.3399 157.476 41.8279C151.353 41.3625 145.985 43.0945 141.933 47.9518C139.789 50.5212 138.412 53.5185 137.62 56.7479C135.772 64.2705 135.398 71.8332 137.877 79.2772C140.54 87.2745 146.312 91.5438 154.626 92.4145C161.394 93.1252 167.15 91.0958 171.668 85.8945C172.757 84.6385 173.796 83.3412 174.854 82.0599C175.064 81.8065 175.257 81.5412 175.498 81.2265C175.918 81.4932 176.293 81.7278 176.733 82.0052C173.417 87.7398 169.28 92.5385 162.813 94.6425C155.833 96.9145 148.82 96.7332 142.108 93.7145C134.426 90.2612 129.82 84.0452 127.88 75.9865C125.657 66.7532 127.038 57.9999 132.609 50.1732C137.405 43.4345 144.117 39.8705 152.313 39.0145C157.614 38.4612 162.572 39.5812 167.3 41.9518C169.897 43.2532 171.561 42.6052 172.473 39.8492C172.792 38.8865 173.261 38.7105 174.21 38.9625ZM214.454 41.5919V40.1919H231.584V41.5865H230.252C227.025 41.5919 225.022 43.4132 224.776 46.6265C224.664 48.0421 224.606 49.4613 224.6 50.8812C224.58 58.7119 224.681 66.5452 224.533 74.3745C224.473 77.4945 224.142 80.6625 223.472 83.7078C222.025 90.2838 216.685 94.9318 210.022 95.8225C206.365 96.3118 202.718 96.2558 199.122 95.4025C192.928 93.9318 188.129 88.6292 187.429 82.2238C187.017 78.4478 186.869 74.6305 186.816 70.8292C186.722 64.0572 186.809 57.2838 186.776 50.5105C186.773 48.91 186.67 47.3113 186.466 45.7239C186.098 42.9519 184.561 41.6572 181.757 41.5905C181.126 41.5772 180.496 41.5879 179.792 41.5879V40.1799H200.672V41.5025C199.569 41.5852 198.508 41.5825 197.477 41.7612C195.67 42.0772 194.453 43.1625 194.105 44.9812C193.843 46.3135 193.706 47.6674 193.696 49.0252C193.68 58.0959 193.656 67.1678 193.776 76.2358C193.806 78.6652 194.176 81.1185 194.662 83.5052C195.8 89.0758 199.593 92.2612 205.305 92.6158C209.55 92.8798 213.365 91.7412 216.669 89.0025C219.433 86.7092 220.602 83.6345 220.942 80.1932C221.165 77.9412 221.342 75.6732 221.352 73.4118C221.388 64.8558 221.353 56.2985 221.326 47.7425C221.315 46.9568 221.243 46.1731 221.11 45.3985C220.728 43.0279 219.129 41.7012 216.561 41.5958C215.874 41.5692 215.185 41.5919 214.454 41.5919ZM442.826 73.4905C440.088 66.1559 437.374 58.8945 434.57 51.3919L426.105 73.4905H442.826ZM426.032 93.3812C426.056 93.6025 426.089 93.7785 426.089 93.9558C426.09 94.1932 426.066 94.4305 426.049 94.7398H410.842V93.3812C410.966 93.3465 411.128 93.2798 411.296 93.2558C413.877 92.8865 415.562 91.3718 416.538 89.0412C418.026 85.4812 419.518 81.9198 420.898 78.3158C425.828 65.4438 430.713 52.5545 435.609 39.6679C435.789 39.1932 435.918 38.8305 436.577 38.8425C437.213 38.8545 437.286 39.2492 437.444 39.6692C443.12 54.9025 448.796 70.1372 454.486 85.3665C454.877 86.4105 455.36 87.4212 455.813 88.4412C457.077 91.2998 459.056 93.2225 462.413 93.3278V94.7572H443.32V93.4372C444.2 93.2652 445.069 93.1599 445.897 92.9159C447.578 92.4239 448.457 91.2172 448.156 89.5025C447.862 87.8199 447.382 86.1572 446.833 84.5358C446 82.0812 445.018 79.6758 444.14 77.2358C443.929 76.6505 443.62 76.4825 443.013 76.4852C437.269 76.5092 431.526 76.4905 425.781 76.5212C425.448 76.5225 424.912 76.7612 424.812 77.0212C423.472 80.4798 422.081 83.9265 420.932 87.4492C419.733 91.1198 420.718 92.5465 424.505 93.1558C424.98 93.2318 425.458 93.2972 426.032 93.3812Z" fill="#231F20"/>
<path d="M93.0598 73.4691H109.768L101.514 51.3932L93.0598 73.4691ZM129.357 93.3292V94.7558H110.314V93.4238C111.092 93.2758 111.897 93.1771 112.67 92.9625C114.622 92.4185 115.522 91.0265 115.084 89.0518C114.738 87.4958 114.265 85.9612 113.74 84.4558C112.894 82.0358 111.942 79.6531 111.074 77.2398C110.882 76.7065 110.645 76.4838 110.052 76.4865C104.245 76.5078 98.4398 76.4918 92.6331 76.5211C92.3345 76.5225 91.8598 76.7772 91.7638 77.0278C90.4418 80.4297 89.1581 83.8464 87.9131 87.2772C87.646 88.0473 87.4819 88.8493 87.4251 89.6625C87.3171 90.9892 88.0171 92.1372 89.2785 92.5705C90.4385 92.9692 91.6625 93.1785 92.9598 93.4958V94.7398H77.8145V93.3705C77.9571 93.3318 78.1211 93.2665 78.2904 93.2425C80.8398 92.8745 82.5011 91.3705 83.4598 89.0705C85.0478 85.2572 86.6411 81.4438 88.1198 77.5865C92.9438 64.9932 97.7171 52.3798 102.514 39.7772C102.686 39.3265 102.736 38.8305 103.492 38.8359C104.265 38.8412 104.277 39.3719 104.441 39.8119C110.074 54.9052 115.694 70.0025 121.332 85.0945C121.764 86.2518 122.296 87.3718 122.794 88.5038C124.048 91.3438 126.034 93.2132 129.357 93.3292ZM258.346 43.5599V44.6972C258.346 58.0625 258.333 71.4278 258.36 84.7932C258.364 86.4505 258.472 88.1198 258.696 89.7585C258.993 91.9411 260.389 93.1398 262.618 93.2918C263.454 93.3491 264.297 93.3025 265.178 93.3025V94.7411H244.649V93.3131C245.433 93.3131 246.212 93.3452 246.986 93.3065C249.424 93.1865 250.972 91.7491 251.253 89.3251C251.37 88.3065 251.453 87.2772 251.456 86.2545C251.472 72.2838 251.469 58.3131 251.472 44.3425C251.472 44.1092 251.45 43.8745 251.428 43.4198C248.152 43.5558 244.918 43.5358 241.721 43.8732C239.38 44.1238 237.969 45.9092 237.14 47.9705C236.517 49.5158 236.232 51.1945 235.774 52.8985H234.664L235.22 40.1732H274.958L275.485 52.8772H274.2C274.006 51.8665 273.844 50.7998 273.596 49.7558C272.669 45.8545 269.965 43.6465 265.958 43.5692C263.457 43.5198 260.954 43.5599 258.345 43.5599" fill="#231F20"/>
<path d="M68.8971 19.8372C69.1344 21.8239 70.7557 23.0266 72.7344 22.3972C73.7323 22.077 74.6445 21.5345 75.4024 20.8106C77.1104 19.1412 77.1757 16.8372 75.509 15.1359C72.7944 12.3665 69.3864 11.2292 65.6504 12.2252C61.9091 13.2252 59.6984 15.9625 59.1331 19.8025C58.8931 21.4212 59.1144 23.1066 59.0797 24.7612C59.069 25.1612 58.869 25.5559 58.757 25.9546C58.5384 25.6039 58.1837 25.2759 58.1237 24.9012C56.5064 14.8505 63.2931 9.2319 70.2037 8.34657C75.4731 7.6679 79.9397 9.3439 83.7437 12.8466C85.6691 14.6199 87.3597 16.6559 89.0984 18.6252C91.9384 21.8412 95.3917 23.7786 99.7477 23.8012C101.848 23.8119 103.338 22.7425 104.237 20.8332C104.949 19.3225 104.677 17.9719 103.578 16.5532L103.373 17.3799C103.169 18.1986 102.773 18.8346 101.849 18.9546C100.982 19.0679 100.022 18.5465 99.6144 17.7105C99.2237 16.9079 99.2677 16.1119 99.861 15.4252C101.337 13.7159 104.394 13.9999 105.59 15.9012C107.057 18.2319 106.734 20.5106 105.434 22.7439C104.121 25.0012 102.018 25.8332 99.5197 25.6772C95.3864 25.4172 91.9797 23.4972 88.9237 20.8412C88.7024 20.6492 88.4891 20.4439 88.2264 20.2039C88.2264 21.7506 88.3557 23.2225 88.2024 24.6652C87.7851 28.5865 85.8024 31.7746 83.2024 34.6119C81.1184 36.8812 78.8557 38.9985 76.8837 41.3599C74.5864 44.1159 73.2864 47.3572 73.2677 51.0105C73.2584 52.9399 73.7397 54.7799 74.4957 56.5439C75.8731 59.7572 78.209 60.7119 81.589 59.3785C81.433 59.0932 81.289 58.8159 81.1357 58.5452C79.5704 55.7932 78.2851 52.9399 78.0704 49.7266C77.8731 46.8066 78.5544 44.0865 80.1344 41.6199C80.8997 40.4212 81.9664 39.6172 83.4437 39.4945C84.4277 39.4105 85.2637 39.7039 85.7344 40.6145C86.209 41.5279 86.4557 42.5239 85.7877 43.4425C85.1744 44.2852 84.225 44.4292 83.2557 44.3052C82.5584 44.2159 82.0597 43.5292 82.1637 42.8692C82.281 42.1319 82.7877 41.8879 83.4757 41.9172C83.6264 41.9212 83.7824 41.9199 83.9264 41.9572C84.5011 42.1039 84.7864 41.7185 84.769 41.2985C84.757 41.0159 84.325 40.4959 84.1384 40.5212C83.4224 40.6159 82.5624 40.6999 82.069 41.1399C81.3784 41.7546 80.7624 42.6159 80.4744 43.4906C78.8104 48.5532 79.4157 53.4879 83.1117 57.9332C85.4224 56.9359 86.5011 54.3279 85.7037 51.5465C85.2664 51.8159 84.861 52.1119 84.4184 52.3292C83.4517 52.8065 82.5384 52.7359 81.9704 52.1425C81.3544 51.4945 81.3464 50.7292 81.6584 49.9452C82.0064 49.0679 82.8584 48.5452 83.8117 48.5852C85.5051 48.6585 87.069 50.1466 87.401 52.0252C87.8717 54.6786 86.8784 56.8785 85.2437 58.8719C85.1104 59.0359 84.9637 59.1879 84.8184 59.3439C83.7384 60.5105 83.6797 60.5519 84.609 61.8372C85.2024 62.6572 86.0184 63.3145 86.6904 64.0838C86.9144 64.3398 87.0024 64.7185 87.1517 65.0385C86.7931 64.9959 86.3064 65.0865 86.0984 64.8865C84.8717 63.7065 83.7117 62.4599 82.4197 61.1265C80.993 62.0039 79.2064 62.6172 77.2024 62.0892C75.2024 61.5638 73.9437 60.1425 72.8717 58.4652C73.2864 62.7505 73.9677 66.9492 76.1984 70.6745C77.0161 72.0437 78.0602 73.2641 79.2864 74.2839C81.201 75.8492 83.7544 75.5105 85.233 73.7732C86.609 72.1545 86.3277 70.1332 84.5557 69.0399C84.485 69.3025 84.4224 69.5625 84.345 69.8212C84.0037 70.9732 83.1544 71.6092 82.0917 71.5145C81.1957 71.4318 80.5384 70.7545 80.4091 69.7745C80.2771 68.7892 80.8944 67.7959 81.8757 67.4119C83.3211 66.8479 85.1304 67.2625 86.1917 68.4665C87.5037 69.9545 87.7784 71.7079 87.221 73.5599C86.661 75.4212 85.333 76.5692 83.441 76.9518C80.641 77.5198 78.4997 76.2718 76.729 74.2558C74.733 71.9825 73.5584 69.2559 72.7957 66.3799C71.4157 61.1945 70.5024 55.9332 70.8944 50.5319C71.241 45.7425 73.145 41.6999 76.721 38.4425C78.885 36.4719 81.0451 34.4825 83.0651 32.3665C84.5677 30.7932 85.5011 28.8466 85.6851 26.6159C85.7117 26.3226 85.689 26.0266 85.689 25.7026C84.9917 25.6399 84.065 25.8145 84.133 24.7799C84.2104 23.6265 85.2157 24.0519 85.8957 23.9852C86.301 15.4252 77.8957 8.84791 68.365 10.6866C69.545 10.9106 70.517 11.0732 71.4797 11.2839C73.6397 11.7586 75.4904 12.7772 76.913 14.4972C79.077 17.1132 78.6464 20.3372 75.8531 22.5132C73.1824 24.5972 69.8357 24.2519 68.0064 21.7065C66.7597 19.9732 67.0077 17.7612 68.5931 16.7292C68.9131 16.5199 69.2957 16.3665 69.6704 16.2985C70.3944 16.1665 71.1144 16.4172 71.3011 17.1079C71.4317 17.5905 71.2637 18.3706 70.9224 18.7132C70.4264 19.2132 69.6557 19.4399 68.8971 19.8372ZM279.234 41.4972V40.1719H299.981V41.5879C299.414 41.5879 298.825 41.5812 298.234 41.5879C295.088 41.6279 293.408 43.1746 293.184 46.2945C293.074 47.7712 293.015 49.2512 293.008 50.7319C292.994 62.0719 292.994 73.4119 293.008 84.7518C293.02 86.1118 293.073 87.4711 293.168 88.8279C293.332 91.4825 295 93.1345 297.688 93.3038C298.433 93.3518 299.185 93.3119 299.985 93.3119V94.7385H279.262V93.3119C280.038 93.3119 280.817 93.3452 281.592 93.3052C284.072 93.1799 285.622 91.7372 285.906 89.2678C286.022 88.2492 286.106 87.2198 286.109 86.1945C286.122 73.6759 286.121 61.1572 286.112 48.6372C286.11 47.7039 285.992 46.7705 285.96 45.8332C285.866 43.1772 284.074 42.1932 282.262 41.7825C281.305 41.5665 280.294 41.5892 279.234 41.4972ZM9.47974 60.6238C7.12907 62.7932 6.67708 65.4279 7.31708 68.2599C9.44508 77.6759 17.5517 81.0305 24.8371 80.1078C29.9304 79.4625 34.2091 77.2692 37.5224 73.2919C37.6851 73.0972 37.8931 72.9412 38.0811 72.7678L38.3531 72.9172C38.0784 73.5852 37.8864 74.3039 37.5171 74.9145C35.2997 78.5679 31.8611 80.4612 27.8797 81.6292C16.7331 84.9092 7.45973 77.1492 5.5304 70.0825C4.7224 67.1239 4.88773 64.1399 6.32906 61.3599C7.18506 59.7079 8.51041 58.4879 10.4224 58.2505C11.2117 58.1519 12.1011 58.3439 12.8571 58.6332C13.8264 59.0065 14.3771 60.1292 14.2277 60.9639C14.0811 61.7599 13.3611 62.4439 12.4891 62.6092C11.3784 62.8225 10.3691 62.3825 9.86107 61.4492C9.73173 61.2119 9.63307 60.9585 9.47974 60.6238Z" fill="#231F20"/>
<path d="M63.4424 5.3572C63.1358 3.7892 62.1811 3.04251 60.8078 2.73317C56.2184 1.69984 51.9545 4.78254 51.2878 9.58253C50.7491 13.4665 51.7411 17.0865 53.2318 20.5905C53.9598 22.3052 54.9424 23.9119 55.8091 25.5692C55.9544 25.8492 56.0878 26.1332 56.2278 26.4159C56.165 26.4891 56.1019 26.562 56.0384 26.6345C55.7544 26.4892 55.3944 26.4119 55.1958 26.1905C51.3291 21.8465 48.6465 16.9719 48.7825 10.9665C48.8571 7.60653 50.2158 4.7292 52.7598 2.52386C55.1731 0.431864 58.0158 -0.134827 61.0705 0.790506C63.7638 1.60517 65.2838 4.08384 64.9105 6.81451C64.7505 7.99184 64.1451 8.74786 63.1638 8.99452C62.1544 9.24919 61.1211 8.87851 60.6091 8.07851C60.1078 7.29451 60.1691 6.31453 60.7638 5.63853C61.3958 4.91986 62.1491 4.81987 63.4424 5.35854M26.3051 4.70253C26.6558 5.4492 26.9985 6.01986 27.1971 6.63853C27.4865 7.53586 27.3158 8.39851 26.5825 9.03851C25.8731 9.65851 25.0331 9.66519 24.2011 9.30519C23.3038 8.91852 22.8745 8.16519 22.8438 7.2252C22.8038 5.9652 23.3518 4.94518 24.3185 4.15452C26.0971 2.69985 28.1811 2.47454 30.3264 2.85321C38.5131 4.29987 43.5265 9.43451 46.3705 16.9532C46.8878 18.3158 47.0638 19.8185 47.3091 21.2705C47.3704 21.6385 47.0865 22.0625 46.9611 22.4598C46.7131 22.1065 46.3385 21.7865 46.2371 21.3958C44.6558 15.2958 41.4758 10.3318 36.0318 6.98651C33.7078 5.55984 31.1638 4.72251 28.4278 4.56785C27.7438 4.52918 27.0505 4.65187 26.3051 4.70253ZM2.30379 101.466C2.39979 100.966 2.43313 100.712 2.4998 100.466C2.7358 99.5998 3.45447 99.0531 4.28514 99.0971C5.14247 99.1425 5.76247 99.7332 5.9118 100.645C6.15714 102.144 5.28913 103.701 4.00779 104.058C2.59179 104.454 1.14646 103.658 0.570458 102.118C-0.181542 100.108 0.0104625 98.1052 0.933129 96.2265C4.18246 89.6158 9.31713 85.6238 16.8051 84.9198C19.7251 84.6465 22.5918 84.9665 25.4478 85.5091C26.1318 85.6385 26.1278 85.6558 26.0051 86.5625C25.1465 86.4772 24.2851 86.3772 23.4224 86.3105C19.2758 85.9865 15.2025 86.2612 11.3731 88.0572C7.3558 89.9412 4.50913 93.0238 2.58647 96.9772C1.9358 98.3185 1.62513 99.7385 2.30379 101.465" fill="#231F20"/>
</svg>
