<svg width="77" height="76" viewBox="0 0 77 76" fill="none" xmlns="http://www.w3.org/2000/svg">
<path d="M33.2582 30.9493C33.2582 30.9493 21.0809 8.31992 20.6316 7.70925C20.1916 7.09325 17.6822 6.30392 16.1276 7.43325C14.5716 8.56658 14.5622 11.1959 15.0036 11.8092C15.4516 12.4226 33.2569 30.9493 33.2569 30.9493M35.8022 29.6399C35.8022 29.6399 31.2462 4.34792 31.0089 3.62926C30.7795 2.90659 28.6409 1.37592 26.8156 1.97059C24.9822 2.56525 24.1529 5.06393 24.3849 5.77993C24.6196 6.49993 35.8022 29.6399 35.8022 29.6399ZM42.1396 2.96926C42.1436 2.2106 40.5862 0.0932485 38.6649 0.0905818C36.7382 0.0865818 35.1769 2.20258 35.1769 2.96125C35.1729 3.71591 38.6262 29.1853 38.6262 29.1853C38.6262 29.1853 42.1396 3.72793 42.1396 2.96926ZM3.93557 30.8506C4.65557 31.0839 29.9662 35.5412 29.9662 35.5412C29.9662 35.5412 6.78491 24.4506 6.06358 24.2186C5.34224 23.9866 2.84893 24.8252 2.26093 26.6546C1.67426 28.4906 3.21423 30.6186 3.93557 30.8506ZM3.34491 41.9892C4.09691 41.9852 29.5409 38.3679 29.5409 38.3679C29.5409 38.3679 4.06092 35.0159 3.30626 35.0213C2.54626 35.0266 0.436925 36.5946 0.450258 38.5172C0.459592 40.4452 2.58224 41.9892 3.34357 41.9892M31.2462 32.9839C31.2462 32.9839 12.6489 15.2466 12.0356 14.8039C11.4222 14.3599 8.79291 14.3866 7.66758 15.9399C6.53825 17.5039 7.34356 20.0066 7.95823 20.4493C8.57023 20.8959 31.2462 32.9839 31.2462 32.9839ZM73.3555 30.8773C74.0755 30.6466 75.6222 28.5199 75.0395 26.6906C74.4582 24.8519 71.9715 24.0106 71.2462 24.2372C70.5249 24.4666 47.3156 35.4986 47.3156 35.4986C47.3156 35.4986 72.6342 31.1053 73.3555 30.8773ZM47.7529 38.3239C47.7529 38.3239 73.1849 42.0052 73.9436 42.0106C74.7022 42.0146 76.8289 40.4719 76.8462 38.5479C76.8596 36.6239 74.7555 35.0506 73.9969 35.0452C73.2409 35.0372 47.7529 38.3252 47.7529 38.3252M69.3396 20.4746C69.9596 20.0319 70.7662 17.5306 69.6462 15.9693C68.5235 14.4053 65.8955 14.3746 65.2809 14.8146C64.6635 15.2559 46.0222 32.9479 46.0222 32.9479C46.0222 32.9479 68.7289 20.9146 69.3396 20.4746ZM62.3035 11.8292C62.7515 11.2186 62.7422 8.59058 61.1916 7.45325C59.6409 6.31458 57.1302 7.09992 56.6822 7.71192C56.2315 8.32258 44.0009 30.9226 44.0009 30.9226C44.0009 30.9226 61.8515 12.4399 62.3035 11.8292ZM52.9262 5.79592C53.1609 5.07726 52.3396 2.58259 50.5129 1.97992C48.6809 1.37992 46.5436 2.90526 46.3036 3.62659C46.0689 4.34659 41.4542 29.6279 41.4542 29.6279C41.4542 29.6279 52.6902 6.51459 52.9262 5.79592ZM38.6862 33.1079C38.0138 33.1023 37.3468 33.2294 36.7236 33.4819C36.1004 33.7345 35.5331 34.1075 35.0542 34.5797C34.5754 35.0518 34.1944 35.6138 33.9332 36.2334C33.6719 36.853 33.5354 37.5181 33.5315 38.1906C33.5261 38.8624 33.6531 39.5286 33.9052 40.1514C34.1573 40.7741 34.5296 41.341 35.0008 41.8198C35.4721 42.2986 36.033 42.6799 36.6516 42.9418C37.2702 43.2038 37.9344 43.3414 38.6062 43.3466C39.9642 43.3562 41.2706 42.8267 42.2387 41.8743C43.2068 40.922 43.7575 39.6245 43.7702 38.2666C43.7795 36.9085 43.2492 35.6023 42.2959 34.635C41.3426 33.6677 40.0443 33.1185 38.6862 33.1079Z" fill="#ED1C24"/>
<path d="M33.1278 45.1109C33.1278 45.1109 20.9505 67.2171 20.5011 67.8136C20.0611 68.4154 17.5518 69.1865 15.9971 68.0832C14.4411 66.9761 14.4318 64.4076 14.8731 63.8084C15.3211 63.2093 33.1264 45.1109 33.1264 45.1109M35.6718 46.39C35.6718 46.39 31.1158 71.0972 30.8784 71.7993C30.6491 72.5053 28.5105 74.0005 26.6851 73.4196C24.8518 72.8387 24.0225 70.3978 24.2545 69.6983C24.4891 68.995 35.6718 46.39 35.6718 46.39ZM42.0091 72.444C42.0131 73.1852 40.4558 75.2536 38.5345 75.2562C36.6078 75.2601 35.0465 73.193 35.0465 72.4519C35.0425 71.7146 38.4958 46.8341 38.4958 46.8341C38.4958 46.8341 42.0091 71.7029 42.0091 72.444ZM3.80513 45.2073C4.52513 44.9793 29.8358 40.625 29.8358 40.625C29.8358 40.625 6.65448 51.4593 5.93314 51.686C5.21181 51.9126 2.71849 51.0933 2.13049 49.3063C1.54383 47.5127 3.0838 45.4339 3.80513 45.2073ZM31.1158 43.1233C31.1158 43.1233 12.5185 60.4505 11.9051 60.883C11.2918 61.3167 8.66248 61.2907 7.53715 59.7732C6.40781 58.2454 7.21313 55.8006 7.8278 55.3681C8.4398 54.9318 31.1158 43.1233 31.1158 43.1233ZM73.2251 45.1812C73.9451 45.4066 75.4918 47.4841 74.9091 49.2711C74.3278 51.0673 71.8411 51.8892 71.1158 51.6677C70.3945 51.4437 47.1851 40.6667 47.1851 40.6667C47.1851 40.6667 72.5038 44.9585 73.2251 45.1812ZM69.2091 55.3434C69.8291 55.7758 70.6358 58.2193 69.5158 59.7446C68.3931 61.2724 65.7651 61.3024 65.1504 60.8726C64.5331 60.4414 45.8918 43.1584 45.8918 43.1584C45.8918 43.1584 68.5985 54.9136 69.2091 55.3434ZM62.1731 63.7889C62.6211 64.3854 62.6118 66.9527 61.0611 68.0637C59.5105 69.176 56.9998 68.4089 56.5518 67.811C56.1011 67.2145 43.8705 45.1369 43.8705 45.1369C43.8705 45.1369 61.7211 63.1923 62.1731 63.7889ZM52.7958 69.6827C53.0305 70.3848 52.2091 72.8218 50.3825 73.4105C48.5505 73.9966 46.4131 72.5066 46.1731 71.8019C45.9385 71.0985 41.3238 46.4017 41.3238 46.4017C41.3238 46.4017 52.5598 68.9807 52.7958 69.6827ZM38.5558 43.0021C37.8834 43.0076 37.2164 42.8835 36.5932 42.6367C35.9699 42.39 35.4026 42.0256 34.9238 41.5644C34.445 41.1032 34.064 40.5542 33.8027 39.9489C33.5414 39.3436 33.4049 38.6939 33.4011 38.037C33.3957 37.3807 33.5226 36.7298 33.7747 36.1215C34.0268 35.5132 34.3991 34.9594 34.8704 34.4916C35.3416 34.0239 35.9026 33.6514 36.5212 33.3955C37.1398 33.1396 37.804 33.0053 38.4758 33.0002C39.8338 32.9908 41.1401 33.508 42.1082 34.4384C43.0763 35.3687 43.6271 36.6362 43.6398 37.9627C43.649 39.2894 43.1187 40.5654 42.1654 41.5103C41.2121 42.4552 39.9139 42.9918 38.5558 43.0021Z" fill="#ED1C24"/>
</svg>
