<svg width="463" height="229" viewBox="0 0 463 229" fill="none" xmlns="http://www.w3.org/2000/svg">
<path d="M37.4091 109.748V107.353H76.0691V109.747C75.4411 109.747 74.8398 109.797 74.2491 109.739C71.0931 109.427 68.3798 111.803 67.7824 114.468C67.3325 116.498 67.1 118.571 67.0891 120.651C67.0224 132.505 67.0517 144.36 67.0491 156.215C67.0491 164.38 67.1104 172.544 67.0224 180.708C66.9904 184.492 66.3387 188.245 65.0931 191.819C62.8224 198.312 58.2891 202.298 51.6371 203.889C47.3691 204.91 43.0411 205.228 38.6771 204.653C32.3531 203.821 26.0971 198.46 24.5838 192.566C23.9817 190.27 24.0558 187.849 24.7971 185.593C25.7931 182.535 27.9131 180.737 31.0638 180.1C35.1011 179.281 38.7491 180.78 40.6851 184.076C43.1304 188.238 41.6984 196.25 33.7624 196.48C33.3464 196.493 32.9291 196.481 32.4998 196.481C32.2424 197.512 32.5718 198.304 33.0851 199.032C34.0958 200.466 35.5331 201.356 37.2184 201.572C38.6958 201.761 40.2424 201.729 41.7198 201.521C44.8958 201.073 46.4344 198.908 47.1624 195.964C47.8931 193.013 48.2024 190.013 48.2371 186.988C48.3171 180.033 48.3838 173.079 48.3958 166.123C48.4198 152.031 48.4197 137.939 48.3877 123.845C48.3811 121.159 48.2398 118.468 48.0398 115.789C47.8398 113.113 45.7838 110.773 43.1571 110.119C42.2864 109.901 41.3731 109.816 40.4731 109.761C39.4851 109.703 38.4904 109.748 37.4091 109.748Z" fill="#ED1C24"/>
<path d="M42.1758 138.073C41.6011 140.335 41.1918 142.763 40.3585 145.033C39.0958 148.473 36.7091 150.849 32.9131 151.431C31.3425 151.671 29.7758 151.6 28.2851 150.949C25.4985 149.733 24.3865 146.588 25.7878 143.882C27.1238 141.305 30.9078 141.135 32.4891 143.583C33.2785 144.804 32.8692 146.512 31.6225 147.2C30.9385 147.577 30.2691 147.572 29.7158 146.989C29.1425 146.384 28.9825 145.632 29.4145 144.904C29.8945 144.096 30.6011 144.236 31.2878 144.708C31.4985 143.468 30.5678 142.439 29.3278 142.476C28.703 142.501 28.1067 142.744 27.6425 143.163C27.1782 143.582 26.8754 144.15 26.7865 144.769C26.3358 148.103 28.4465 150.168 31.7892 149.808C35.8292 149.373 38.2611 147.039 39.2345 143.299C39.8878 140.779 40.0531 138.125 40.3731 135.525C40.4398 134.979 40.3238 134.361 40.1291 133.836C38.8651 130.439 36.4278 128.057 33.3491 126.076C33.7051 127.461 34.0958 128.692 34.3305 129.952C35.1505 134.359 32.3065 138.659 27.9838 139.625C23.0078 140.739 17.7785 135.759 18.6545 130.743C19.1971 127.636 23.1185 125.471 26.0372 126.665C27.5198 127.272 28.2892 128.825 27.9158 130.462C27.6065 131.818 26.1918 132.844 24.7252 132.776C23.8678 132.736 23.2411 132.176 23.1878 131.403C23.1318 130.575 23.6745 129.931 24.5532 129.805C24.9118 129.752 25.2852 129.773 25.6332 129.685C26.1972 129.548 26.8972 129.341 26.7772 128.651C26.7052 128.24 26.1811 127.739 25.7505 127.589C23.3438 126.752 20.3838 128.815 20.2358 131.367C20.0825 134.04 22.3825 136.852 25.2892 137.54C28.8692 138.391 32.6065 135.413 32.8012 131.592C32.9612 128.392 31.5785 125.943 29.0398 124.188C27.6931 123.259 26.1651 122.524 24.6251 121.961C21.1945 120.707 18.1705 118.904 15.9705 115.948C12.8051 111.693 12.1425 106.925 14.5598 102.285C17.1185 97.3745 21.1691 94.0186 27.0265 93.4452C34.8611 92.6772 41.0798 95.8079 46.3318 101.32C47.3091 102.347 48.1891 103.465 49.1798 104.617L48.7265 105.092C46.8158 103.503 45.0638 101.924 43.1865 100.513C40.2878 98.3359 37.1465 96.6305 33.4918 96.0559C29.0651 95.3612 25.3012 97.7865 24.3745 101.98C23.9865 103.736 24.4612 105.237 25.9145 106.32C27.4211 107.443 29.0932 107.781 30.8532 106.929C32.1865 106.284 32.9558 104.532 32.6158 103.083C32.4451 102.359 32.0425 102.02 31.1065 101.845C31.1678 102.205 31.2731 102.548 31.2758 102.892C31.2811 103.845 30.5158 104.735 29.5451 104.961C28.7318 105.151 27.8558 104.699 27.3705 103.839C26.9025 103.008 27.0585 102.059 27.7785 101.359C28.8172 100.353 30.7011 100.135 32.0985 100.861C33.3491 101.511 33.9811 102.909 33.6478 104.508C33.1918 106.695 31.9038 108.22 29.7451 108.863C27.5918 109.503 25.6251 109.167 23.9985 107.472C21.1505 104.501 21.3692 100.195 24.5372 97.3345C24.9332 96.9745 25.3585 96.6506 25.8251 96.2666C20.4211 97.4919 15.5292 102.073 14.9158 107.285C14.4985 110.832 15.7678 113.699 18.3412 116.023C21.2412 118.64 24.7078 120.143 28.5238 120.852C30.4131 121.204 32.3505 121.332 34.1625 120.628C35.2825 120.192 36.3398 119.475 37.2691 118.695C38.3265 117.812 38.1691 116.608 37.6358 115.451C37.1558 114.411 36.0785 113.788 34.8278 113.847C35.4265 114.545 35.9305 115.276 35.5798 116.228C35.3025 116.98 34.7931 117.535 33.9465 117.608C32.9331 117.695 32.2091 117.197 31.7065 116.353C31.2038 115.504 31.2931 114.676 31.8785 113.9C33.5851 111.632 37.2905 111.927 38.6158 114.436C39.7585 116.595 38.9918 119.339 36.8585 120.715C35.2318 121.764 33.3851 122.052 31.5145 122.256L30.7705 122.341C32.0398 123.101 33.1838 123.752 34.2905 124.461C38.6811 127.28 41.9678 131.044 43.5611 136.044C45.1385 140.993 45.0225 145.988 42.7011 150.696C41.7545 152.612 40.1865 154.218 38.9385 155.992C37.3772 158.212 35.6705 160.358 34.3598 162.721C32.7731 165.581 32.1691 168.742 32.9625 172.009C33.8105 175.5 37.8145 177.025 40.8211 175.025C42.2345 174.084 42.8051 172.689 42.5678 171.02C42.3238 169.312 40.6078 168.316 38.4478 168.771C38.8065 169.055 39.0865 169.217 39.2931 169.446C40.1291 170.38 40.0825 171.389 39.1905 172.256C38.4211 173.002 37.2598 172.976 36.4305 172.145C35.5998 171.308 35.2625 170.284 35.6905 169.158C36.1638 167.912 37.2065 167.26 38.4771 167.152C41.6931 166.88 43.8238 168.391 44.2171 171.112C44.7065 174.521 43.0305 177.026 39.7358 177.808C35.6198 178.784 32.3452 176.573 31.5252 172.299C31.0052 169.592 31.2785 166.948 32.0012 164.323C32.0945 163.98 32.1745 163.633 32.3292 163.02C30.7732 164.136 29.3945 165.082 28.0625 166.089C24.2211 168.996 20.5505 172.1 17.4585 175.817C15.4105 178.281 14.1678 181.15 13.6118 184.304C13.3145 185.993 13.6372 187.501 15.1518 188.552C16.0892 189.202 17.0745 189.224 18.0652 188.704C19.0358 188.193 19.2718 187.293 18.7051 186.213C18.3478 186.927 17.9758 187.657 17.0158 187.232C16.2958 186.912 16.0958 186.297 16.3012 185.569C16.6718 184.253 18.2078 183.725 19.2825 184.569C20.3985 185.448 20.8051 186.655 20.6198 188.036C20.4558 189.253 19.6865 190.041 18.5891 190.507C15.8811 191.656 12.7092 190.049 11.9545 187.14C11.8118 186.588 11.7638 186.012 11.6438 185.265C11.4332 185.572 11.2665 185.781 11.1358 186.01C8.48916 190.704 7.52915 195.768 7.83848 201.106C8.05048 204.768 8.86915 208.262 10.6318 211.514C13.4145 216.644 17.8132 218.884 23.5252 218.821C23.7332 218.82 23.9971 218.838 24.1371 218.725C25.9025 217.293 27.7158 215.88 28.1558 213.449C28.4091 212.042 27.3372 210.061 25.9452 209.248C24.4705 208.386 22.5625 208.421 21.4318 209.333C21.8585 209.482 22.3065 209.585 22.7051 209.784C23.8518 210.357 24.3078 211.508 23.8518 212.57C23.3878 213.661 22.2772 214.09 21.0358 213.664C18.8025 212.897 18.2078 210.397 19.8331 208.609C21.5531 206.714 24.7345 206.346 27.0838 207.769C30.9598 210.12 31.4838 214.542 28.2571 217.722C27.8305 218.141 27.3612 218.515 26.9278 218.893C29.5012 218.603 32.0638 218.24 34.6385 218.04C38.3145 217.756 41.9985 217.486 45.6585 218.284C49.0678 219.026 51.7625 220.808 53.6971 223.724C53.8438 223.946 54.0011 224.166 54.2478 224.526C56.1398 220.302 58.3118 216.377 61.8251 213.129C59.8251 212.809 58.6411 211.556 57.4518 210.3C56.3984 210.73 55.3718 211.142 54.3518 211.572C53.6585 211.862 52.9638 211.881 52.6425 211.13C52.2945 210.317 52.9558 209.92 53.5891 209.649C55.7811 208.71 57.9851 207.8 60.1811 206.872C67.3251 203.857 71.8958 198.641 73.6638 191.049C73.8051 190.442 73.7918 189.793 73.8078 189.164C73.8651 186.896 73.9038 184.628 73.9491 182.361C73.9491 182.27 73.9491 182.178 73.9558 182.089C74.0091 181.382 74.2038 180.634 75.0091 180.649C75.7664 180.665 75.9358 181.417 75.9798 182.078C76.2851 186.718 77.5198 191.092 79.5865 195.262C81.2451 198.612 83.6785 201.061 87.1971 202.377C89.5731 203.265 91.9358 203.157 94.2624 202.187C96.4131 201.291 98.0998 198.032 97.6838 195.604C97.6096 195.188 97.5193 194.775 97.4131 194.366C96.8291 192.064 95.1584 190.978 92.4798 191.356C92.9118 191.902 93.2651 192.356 93.6225 192.805C94.4038 193.788 94.4651 194.334 93.8998 195.27C93.4038 196.089 92.3771 196.497 91.3718 196.273C89.0744 195.762 88.2331 192.929 89.8558 191.084C90.9051 189.889 92.2824 189.385 93.8424 189.54C97.1384 189.865 99.2345 192.033 99.9558 195.406C100.872 199.689 97.2878 204.26 93.2518 204.878C89.5664 205.444 86.3184 204.644 83.3718 202.39C80.0571 199.856 78.0918 196.398 76.5451 192.636C76.3424 192.138 76.1478 191.636 75.8478 190.884C74.0384 200.282 68.4318 206.052 59.7651 209.061C60.2451 210.321 61.1971 210.777 62.3385 210.857C62.6238 210.877 62.9825 210.596 63.2251 210.364C65.3798 208.324 67.8091 206.791 70.8091 206.416C73.6704 206.059 76.4318 206.445 78.9131 208.014C81.2798 209.51 82.1078 212.174 81.0358 214.556C79.7358 217.436 75.9918 217.985 74.2265 215.549C73.7398 214.877 73.4745 214.144 73.8865 213.349C74.3305 212.493 75.0411 211.88 76.0251 211.912C76.4865 211.925 77.0278 212.265 77.3585 212.618C77.6385 212.916 77.6331 213.462 77.8118 213.872C77.9705 214.226 78.2118 214.544 78.4158 214.877C78.7625 214.594 79.2518 214.381 79.4371 214.016C80.1678 212.566 79.7691 211.184 78.3505 210.122C75.7265 208.167 72.8171 208.053 69.8091 208.957C67.8451 209.548 66.3024 210.806 64.9291 212.296C64.5958 212.654 64.6478 212.93 64.8358 213.329C65.8065 215.368 66.4678 217.481 66.3758 219.781C66.2745 222.309 65.1984 224.376 63.4118 226.088C63.1651 226.325 62.6651 226.296 62.2838 226.388C62.2971 226.017 62.2438 225.626 62.3451 225.281C62.4345 224.978 62.6904 224.721 62.8824 224.453C65.2558 221.122 65.2598 217.677 63.3291 213.972C58.9958 218.034 56.3758 223.162 53.5825 228.304C53.4305 227.948 53.3131 227.69 53.2091 227.429C51.4625 222.981 48.1158 220.602 43.4691 219.922C39.8105 219.388 36.1758 219.824 32.5331 220.18C29.0771 220.517 25.6131 220.904 22.1465 220.973C16.9411 221.077 12.8958 218.778 10.0798 214.389C6.57715 208.922 5.17715 202.889 5.35315 196.449C5.59182 187.764 8.9798 180.543 15.2105 174.489C20.0958 169.747 25.3612 165.541 31.1172 161.929C31.396 161.75 31.6482 161.533 31.8665 161.284C34.7331 158.048 37.6492 154.849 40.4158 151.529C41.1118 150.693 41.4185 149.487 41.7518 148.404C42.7945 145.012 42.7771 141.557 42.1811 138.088C42.1678 138.013 42.0918 137.949 42.1758 138.073ZM341.396 119.501V118.203H360.281V119.505C359.112 119.585 357.964 119.593 356.838 119.756C354.434 120.103 353.11 121.469 352.872 123.868C352.728 125.341 352.658 126.821 352.66 128.301C352.646 142.999 352.65 157.696 352.65 172.394V173.585C351.772 173.782 351.161 173.71 350.552 172.962C338.961 158.736 327.338 144.536 315.721 130.328C315.592 130.169 315.448 130.024 315.205 129.755C315.176 130.143 315.14 130.395 315.14 130.644C315.137 141.592 315.13 152.538 315.149 163.486C315.152 164.753 315.264 166.023 315.397 167.283C315.682 169.973 317.288 171.009 319.952 171.286C320.874 171.382 321.816 171.302 322.822 171.302V172.72H303.936V171.337C304.258 171.337 304.578 171.344 304.898 171.337C305.654 171.318 306.418 171.361 307.165 171.26C309.894 170.891 311.262 169.361 311.488 166.433C311.582 165.197 311.63 163.956 311.632 162.717C311.641 150.591 311.632 138.464 311.653 126.337C311.654 125.581 311.414 125.048 310.936 124.481C309.225 122.46 307.322 120.719 304.674 120.069C303.456 119.769 302.194 119.647 300.896 119.435V118.125H301.869C306.162 118.125 310.457 118.141 314.75 118.109C315.422 118.105 315.852 118.303 316.276 118.825C326.929 131.943 337.6 145.048 348.268 158.155C348.474 158.408 348.688 158.657 349.001 159.032C349.041 158.668 349.085 158.449 349.085 158.229C349.085 147.705 349.088 137.181 349.072 126.657C349.063 125.69 348.993 124.725 348.862 123.767C348.549 121.361 347.318 120.096 344.909 119.756C343.781 119.597 342.632 119.587 341.396 119.503M394.888 152.066V150.58H414.029C414.056 150.819 414.098 151.024 414.098 151.229C414.1 151.465 414.064 151.7 414.042 151.948C413.256 152.032 412.501 152.052 411.773 152.204C410.224 152.524 409.276 153.532 408.961 155.054C408.74 156.088 408.616 157.139 408.592 158.196C408.538 161.612 408.573 165.029 408.532 168.445C408.528 168.796 408.338 169.312 408.072 169.465C398.709 174.818 388.894 175.745 378.909 171.694C371.449 168.668 366.862 162.667 364.841 155.048C361.482 142.393 364.673 131.355 374.312 122.421C379.256 117.841 385.392 116.524 391.985 116.952C395.078 117.152 397.926 118.224 400.765 119.352C401.577 119.675 402.4 119.983 403.238 120.224C404.253 120.517 404.942 120.144 405.304 119.149C405.437 118.785 405.492 118.389 405.566 118.005C405.633 117.656 405.677 117.299 405.737 116.912H407.033L408.296 133.988C407.464 134.24 407.017 134.138 406.738 133.221C405.901 130.465 404.752 127.832 402.969 125.539C399.788 121.444 395.522 119.656 390.4 119.695C384.033 119.743 379.308 122.588 376.097 128.027C373.524 132.385 372.346 137.145 372.066 142.168C371.73 148.175 372.544 153.977 375.009 159.501C377.278 164.588 380.68 168.567 386.085 170.448C391.324 172.274 396.26 171.272 400.948 168.571C401.142 168.459 401.353 168.162 401.352 167.953C401.326 164.113 401.344 160.273 401.197 156.44C401.084 153.482 399.258 152.248 396.421 152.072C395.944 152.042 395.462 152.068 394.888 152.068M174.21 116.963L175.458 135.319C174.581 135.612 174.198 135.408 173.916 134.572C173.371 132.941 172.721 131.347 171.969 129.801C169.01 123.783 164.188 120.34 157.476 119.828C151.353 119.363 145.985 121.095 141.933 125.952C139.789 128.521 138.412 131.519 137.62 134.748C135.772 142.271 135.398 149.833 137.877 157.277C140.54 165.275 146.312 169.544 154.626 170.415C161.394 171.125 167.15 169.096 171.668 163.894C172.757 162.638 173.796 161.341 174.854 160.06C175.064 159.807 175.257 159.541 175.498 159.227C175.918 159.493 176.293 159.728 176.733 160.005C173.417 165.74 169.28 170.538 162.813 172.642C155.833 174.914 148.82 174.733 142.108 171.715C134.426 168.261 129.82 162.045 127.88 153.986C125.657 144.753 127.038 136 132.609 128.173C137.405 121.435 144.117 117.871 152.313 117.015C157.614 116.461 162.572 117.581 167.3 119.952C169.897 121.253 171.561 120.605 172.473 117.849C172.792 116.887 173.261 116.711 174.21 116.963ZM214.454 119.592V118.192H231.584V119.587H230.252C227.025 119.592 225.022 121.413 224.776 124.627C224.664 126.042 224.606 127.461 224.6 128.881C224.58 136.712 224.681 144.545 224.533 152.375C224.473 155.495 224.142 158.663 223.472 161.708C222.025 168.284 216.685 172.932 210.022 173.823C206.365 174.312 202.718 174.256 199.122 173.403C192.928 171.932 188.129 166.629 187.429 160.224C187.017 156.448 186.869 152.631 186.816 148.829C186.722 142.057 186.809 135.284 186.776 128.511C186.773 126.91 186.67 125.311 186.466 123.724C186.098 120.952 184.561 119.657 181.757 119.591C181.126 119.577 180.496 119.588 179.792 119.588V118.18H200.672V119.503C199.569 119.585 198.508 119.583 197.477 119.761C195.67 120.077 194.453 121.163 194.105 122.981C193.843 124.314 193.706 125.667 193.696 127.025C193.68 136.096 193.656 145.168 193.776 154.236C193.806 156.665 194.176 159.119 194.662 161.505C195.8 167.076 199.593 170.261 205.305 170.616C209.55 170.88 213.365 169.741 216.669 167.003C219.433 164.709 220.602 161.634 220.942 158.193C221.165 155.941 221.342 153.673 221.352 151.412C221.388 142.856 221.353 134.299 221.326 125.743C221.315 124.957 221.243 124.173 221.11 123.399C220.728 121.028 219.129 119.701 216.561 119.596C215.874 119.569 215.185 119.592 214.454 119.592ZM442.826 151.491C440.088 144.156 437.374 136.895 434.57 129.392L426.105 151.491H442.826ZM426.032 171.381C426.056 171.603 426.089 171.779 426.089 171.956C426.09 172.193 426.066 172.43 426.049 172.74H410.842V171.381C410.966 171.347 411.128 171.28 411.296 171.256C413.877 170.886 415.562 169.372 416.538 167.041C418.026 163.481 419.518 159.92 420.898 156.316C425.828 143.444 430.713 130.555 435.609 117.668C435.789 117.193 435.918 116.831 436.577 116.843C437.213 116.855 437.286 117.249 437.444 117.669C443.12 132.903 448.796 148.137 454.486 163.366C454.877 164.41 455.36 165.421 455.813 166.441C457.077 169.3 459.056 171.223 462.413 171.328V172.757H443.32V171.437C444.2 171.265 445.069 171.16 445.897 170.916C447.578 170.424 448.457 169.217 448.156 167.503C447.862 165.82 447.382 164.157 446.833 162.536C446 160.081 445.018 157.676 444.14 155.236C443.929 154.651 443.62 154.483 443.013 154.485C437.269 154.509 431.526 154.49 425.781 154.521C425.448 154.522 424.912 154.761 424.812 155.021C423.472 158.48 422.081 161.927 420.932 165.449C419.733 169.12 420.718 170.547 424.505 171.156C424.98 171.232 425.458 171.297 426.032 171.381Z" fill="#231F20"/>
<path d="M93.0598 151.469H109.768L101.514 129.393L93.0598 151.469ZM129.357 171.329V172.756H110.314V171.424C111.092 171.276 111.897 171.177 112.67 170.962C114.622 170.418 115.522 169.026 115.084 167.052C114.738 165.496 114.265 163.961 113.74 162.456C112.894 160.036 111.942 157.653 111.074 155.24C110.882 154.706 110.645 154.484 110.052 154.486C104.245 154.508 98.4398 154.492 92.6331 154.521C92.3345 154.522 91.8598 154.777 91.7638 155.028C90.4418 158.43 89.1581 161.846 87.9131 165.277C87.646 166.047 87.4819 166.849 87.4251 167.662C87.3171 168.989 88.0171 170.137 89.2785 170.57C90.4385 170.969 91.6625 171.178 92.9598 171.496V172.74H77.8145V171.371C77.9571 171.332 78.1211 171.266 78.2904 171.242C80.8398 170.874 82.5011 169.37 83.4598 167.07C85.0478 163.257 86.6411 159.444 88.1198 155.586C92.9438 142.993 97.7171 130.38 102.514 117.777C102.686 117.327 102.736 116.831 103.492 116.836C104.265 116.841 104.277 117.372 104.441 117.812C110.074 132.905 115.694 148.003 121.332 163.095C121.764 164.252 122.296 165.372 122.794 166.504C124.048 169.344 126.034 171.213 129.357 171.329ZM258.346 121.56V122.697C258.346 136.063 258.333 149.428 258.36 162.793C258.364 164.45 258.472 166.12 258.696 167.758C258.993 169.941 260.389 171.14 262.618 171.292C263.454 171.349 264.297 171.302 265.178 171.302V172.741H244.649V171.313C245.433 171.313 246.212 171.345 246.986 171.306C249.424 171.186 250.972 169.749 251.253 167.325C251.37 166.306 251.453 165.277 251.456 164.254C251.472 150.284 251.469 136.313 251.472 122.342C251.472 122.109 251.45 121.875 251.428 121.42C248.152 121.556 244.918 121.536 241.721 121.873C239.38 122.124 237.969 123.909 237.14 125.97C236.517 127.516 236.232 129.195 235.774 130.899H234.664L235.22 118.173H274.958L275.485 130.877H274.2C274.006 129.866 273.844 128.8 273.596 127.756C272.669 123.854 269.965 121.647 265.958 121.569C263.457 121.52 260.954 121.56 258.345 121.56" fill="#231F20"/>
<path d="M68.8971 97.8372C69.1344 99.8239 70.7557 101.027 72.7344 100.397C73.7323 100.077 74.6445 99.5345 75.4024 98.8106C77.1104 97.1412 77.1757 94.8372 75.509 93.1359C72.7944 90.3665 69.3864 89.2292 65.6504 90.2252C61.9091 91.2252 59.6984 93.9625 59.1331 97.8025C58.8931 99.4212 59.1144 101.107 59.0797 102.761C59.069 103.161 58.869 103.556 58.757 103.955C58.5384 103.604 58.1837 103.276 58.1237 102.901C56.5064 92.8505 63.2931 87.2319 70.2037 86.3466C75.4731 85.6679 79.9397 87.3439 83.7437 90.8466C85.6691 92.6199 87.3597 94.6559 89.0984 96.6252C91.9384 99.8412 95.3917 101.779 99.7477 101.801C101.848 101.812 103.338 100.743 104.237 98.8332C104.949 97.3225 104.677 95.9719 103.578 94.5532L103.373 95.3799C103.169 96.1986 102.773 96.8346 101.849 96.9546C100.982 97.0679 100.022 96.5465 99.6144 95.7105C99.2237 94.9079 99.2677 94.1119 99.861 93.4252C101.337 91.7159 104.394 91.9999 105.59 93.9012C107.057 96.2319 106.734 98.5106 105.434 100.744C104.121 103.001 102.018 103.833 99.5197 103.677C95.3864 103.417 91.9797 101.497 88.9237 98.8412C88.7024 98.6492 88.4891 98.4439 88.2264 98.2039C88.2264 99.7506 88.3557 101.223 88.2024 102.665C87.7851 106.587 85.8024 109.775 83.2024 112.612C81.1184 114.881 78.8557 116.999 76.8837 119.36C74.5864 122.116 73.2864 125.357 73.2677 129.011C73.2584 130.94 73.7397 132.78 74.4957 134.544C75.8731 137.757 78.209 138.712 81.589 137.379C81.433 137.093 81.289 136.816 81.1357 136.545C79.5704 133.793 78.2851 130.94 78.0704 127.727C77.8731 124.807 78.5544 122.087 80.1344 119.62C80.8997 118.421 81.9664 117.617 83.4437 117.495C84.4277 117.411 85.2637 117.704 85.7344 118.615C86.209 119.528 86.4557 120.524 85.7877 121.443C85.1744 122.285 84.225 122.429 83.2557 122.305C82.5584 122.216 82.0597 121.529 82.1637 120.869C82.281 120.132 82.7877 119.888 83.4757 119.917C83.6264 119.921 83.7824 119.92 83.9264 119.957C84.5011 120.104 84.7864 119.719 84.769 119.299C84.757 119.016 84.325 118.496 84.1384 118.521C83.4224 118.616 82.5624 118.7 82.069 119.14C81.3784 119.755 80.7624 120.616 80.4744 121.491C78.8104 126.553 79.4157 131.488 83.1117 135.933C85.4224 134.936 86.5011 132.328 85.7037 129.547C85.2664 129.816 84.861 130.112 84.4184 130.329C83.4517 130.807 82.5384 130.736 81.9704 130.143C81.3544 129.495 81.3464 128.729 81.6584 127.945C82.0064 127.068 82.8584 126.545 83.8117 126.585C85.5051 126.659 87.069 128.147 87.401 130.025C87.8717 132.679 86.8784 134.879 85.2437 136.872C85.1104 137.036 84.9637 137.188 84.8184 137.344C83.7384 138.511 83.6797 138.552 84.609 139.837C85.2024 140.657 86.0184 141.315 86.6904 142.084C86.9144 142.34 87.0024 142.719 87.1517 143.039C86.7931 142.996 86.3064 143.087 86.0984 142.887C84.8717 141.707 83.7117 140.46 82.4197 139.127C80.993 140.004 79.2064 140.617 77.2024 140.089C75.2024 139.564 73.9437 138.143 72.8717 136.465C73.2864 140.751 73.9677 144.949 76.1984 148.675C77.0161 150.044 78.0602 151.264 79.2864 152.284C81.201 153.849 83.7544 153.511 85.233 151.773C86.609 150.155 86.3277 148.133 84.5557 147.04C84.485 147.303 84.4224 147.563 84.345 147.821C84.0037 148.973 83.1544 149.609 82.0917 149.515C81.1957 149.432 80.5384 148.755 80.4091 147.775C80.2771 146.789 80.8944 145.796 81.8757 145.412C83.3211 144.848 85.1304 145.263 86.1917 146.467C87.5037 147.955 87.7784 149.708 87.221 151.56C86.661 153.421 85.333 154.569 83.441 154.952C80.641 155.52 78.4997 154.272 76.729 152.256C74.733 149.983 73.5584 147.256 72.7957 144.38C71.4157 139.195 70.5024 133.933 70.8944 128.532C71.241 123.743 73.145 119.7 76.721 116.443C78.885 114.472 81.0451 112.483 83.0651 110.367C84.5677 108.793 85.5011 106.847 85.6851 104.616C85.7117 104.323 85.689 104.027 85.689 103.703C84.9917 103.64 84.065 103.815 84.133 102.78C84.2104 101.627 85.2157 102.052 85.8957 101.985C86.301 93.4252 77.8957 86.8479 68.365 88.6866C69.545 88.9106 70.517 89.0732 71.4797 89.2839C73.6397 89.7586 75.4904 90.7772 76.913 92.4972C79.077 95.1132 78.6464 98.3372 75.8531 100.513C73.1824 102.597 69.8357 102.252 68.0064 99.7065C66.7597 97.9732 67.0077 95.7612 68.5931 94.7292C68.9131 94.5199 69.2957 94.3665 69.6704 94.2985C70.3944 94.1665 71.1144 94.4172 71.3011 95.1079C71.4317 95.5905 71.2637 96.3706 70.9224 96.7132C70.4264 97.2132 69.6557 97.4399 68.8971 97.8372ZM279.234 119.497V118.172H299.981V119.588C299.414 119.588 298.825 119.581 298.234 119.588C295.088 119.628 293.408 121.175 293.184 124.295C293.074 125.771 293.015 127.251 293.008 128.732C292.994 140.072 292.994 151.412 293.008 162.752C293.02 164.112 293.073 165.471 293.168 166.828C293.332 169.483 295 171.135 297.688 171.304C298.433 171.352 299.185 171.312 299.985 171.312V172.738H279.262V171.312C280.038 171.312 280.817 171.345 281.592 171.305C284.072 171.18 285.622 169.737 285.906 167.268C286.022 166.249 286.106 165.22 286.109 164.195C286.122 151.676 286.121 139.157 286.112 126.637C286.11 125.704 285.992 124.771 285.96 123.833C285.866 121.177 284.074 120.193 282.262 119.783C281.305 119.567 280.294 119.589 279.234 119.497ZM9.47974 138.624C7.12907 140.793 6.67708 143.428 7.31708 146.26C9.44508 155.676 17.5517 159.031 24.8371 158.108C29.9304 157.463 34.2091 155.269 37.5224 151.292C37.6851 151.097 37.8931 150.941 38.0811 150.768L38.3531 150.917C38.0784 151.585 37.8864 152.304 37.5171 152.915C35.2997 156.568 31.8611 158.461 27.8797 159.629C16.7331 162.909 7.45973 155.149 5.5304 148.083C4.7224 145.124 4.88773 142.14 6.32906 139.36C7.18506 137.708 8.51041 136.488 10.4224 136.251C11.2117 136.152 12.1011 136.344 12.8571 136.633C13.8264 137.007 14.3771 138.129 14.2277 138.964C14.0811 139.76 13.3611 140.444 12.4891 140.609C11.3784 140.823 10.3691 140.383 9.86107 139.449C9.73173 139.212 9.63307 138.959 9.47974 138.624Z" fill="#231F20"/>
<path d="M63.4424 83.3572C63.1358 81.7892 62.1811 81.0425 60.8078 80.7332C56.2184 79.6998 51.9545 82.7825 51.2878 87.5825C50.7491 91.4665 51.7411 95.0865 53.2318 98.5905C53.9598 100.305 54.9424 101.912 55.8091 103.569C55.9544 103.849 56.0878 104.133 56.2278 104.416C56.165 104.489 56.1019 104.562 56.0384 104.635C55.7544 104.489 55.3944 104.412 55.1958 104.191C51.3291 99.8465 48.6465 94.9719 48.7825 88.9665C48.8571 85.6065 50.2158 82.7292 52.7598 80.5239C55.1731 78.4319 58.0158 77.8652 61.0705 78.7905C63.7638 79.6052 65.2838 82.0838 64.9105 84.8145C64.7505 85.9918 64.1451 86.7479 63.1638 86.9945C62.1544 87.2492 61.1211 86.8785 60.6091 86.0785C60.1078 85.2945 60.1691 84.3145 60.7638 83.6385C61.3958 82.9199 62.1491 82.8199 63.4424 83.3585M26.3051 82.7025C26.6558 83.4492 26.9985 84.0199 27.1971 84.6385C27.4865 85.5359 27.3158 86.3985 26.5825 87.0385C25.8731 87.6585 25.0331 87.6652 24.2011 87.3052C23.3038 86.9185 22.8745 86.1652 22.8438 85.2252C22.8038 83.9652 23.3518 82.9452 24.3185 82.1545C26.0971 80.6999 28.1811 80.4745 30.3264 80.8532C38.5131 82.2999 43.5265 87.4345 46.3705 94.9532C46.8878 96.3158 47.0638 97.8185 47.3091 99.2705C47.3704 99.6385 47.0865 100.063 46.9611 100.46C46.7131 100.107 46.3385 99.7865 46.2371 99.3958C44.6558 93.2958 41.4758 88.3318 36.0318 84.9865C33.7078 83.5598 31.1638 82.7225 28.4278 82.5678C27.7438 82.5292 27.0505 82.6519 26.3051 82.7025ZM2.30379 179.466C2.39979 178.966 2.43313 178.712 2.4998 178.466C2.7358 177.6 3.45447 177.053 4.28514 177.097C5.14247 177.142 5.76247 177.733 5.9118 178.645C6.15714 180.144 5.28913 181.701 4.00779 182.058C2.59179 182.454 1.14646 181.658 0.570458 180.118C-0.181542 178.108 0.0104625 176.105 0.933129 174.227C4.18246 167.616 9.31713 163.624 16.8051 162.92C19.7251 162.646 22.5918 162.966 25.4478 163.509C26.1318 163.638 26.1278 163.656 26.0051 164.562C25.1465 164.477 24.2851 164.377 23.4224 164.31C19.2758 163.986 15.2025 164.261 11.3731 166.057C7.3558 167.941 4.50913 171.024 2.58647 174.977C1.9358 176.318 1.62513 177.738 2.30379 179.465" fill="#231F20"/>
<path d="M212.733 59.0492V61.6892H203.64V75.8092H211.058V78.3665H203.64V91.7759H200.79V59.0492H212.733ZM226.893 80.8399L224.422 61.6479H221.992L219.562 80.8399H226.893ZM219.645 59.0479H226.769L231.169 91.7759H228.32L227.186 83.3545H219.226L218.096 91.7759H215.245L219.645 59.0479ZM259.869 91.7759H257.02L255.804 71.8305L255.26 61.5639H253.75L252.326 71.8719L249.561 91.7759H245.536L242.729 71.6199L241.389 61.5639H239.88L239.334 71.8305L238.078 91.7772H235.228L237.45 59.0492H243.61L246.081 76.6492L247.549 89.3039H247.592L249.016 76.6906L251.53 59.0506H257.733L259.869 91.7759ZM268.914 91.7759H266.065V59.0492H268.914V91.7759ZM268.369 50.5012H271.304L270.632 52.3026L268.412 56.4506H266.024L268.369 50.5012ZM279.304 59.0492V89.1359H287.557V91.7759H276.454V59.0492H279.304ZM295.1 91.7759H292.25V59.0492H295.1V91.7759ZM312.193 80.8399L309.721 61.6479H307.29L304.861 80.8399H312.193ZM304.945 59.0479H312.068L316.466 91.7759H313.617L312.486 83.3545H304.525L303.392 91.7759H300.544L304.945 59.0479ZM251.258 30.9493C251.258 30.9493 239.081 8.31992 238.632 7.70925C238.192 7.09325 235.682 6.30392 234.128 7.43325C232.572 8.56658 232.562 11.1959 233.004 11.8092C233.452 12.4226 251.257 30.9493 251.257 30.9493M253.802 29.6399C253.802 29.6399 249.246 4.34792 249.009 3.62926C248.78 2.90659 246.641 1.37592 244.816 1.97059C242.982 2.56525 242.153 5.06393 242.385 5.77993C242.62 6.49993 253.802 29.6399 253.802 29.6399ZM260.14 2.96926C260.144 2.2106 258.586 0.0932485 256.665 0.0905818C254.738 0.0865818 253.177 2.20258 253.177 2.96125C253.173 3.71591 256.626 29.1853 256.626 29.1853C256.626 29.1853 260.14 3.72793 260.14 2.96926ZM221.936 30.8506C222.656 31.0839 247.966 35.5413 247.966 35.5413C247.966 35.5413 224.785 24.4506 224.064 24.2186C223.342 23.9866 220.849 24.8252 220.261 26.6546C219.674 28.4906 221.214 30.6186 221.936 30.8506ZM221.345 41.9892C222.097 41.9852 247.541 38.3679 247.541 38.3679C247.541 38.3679 222.061 35.0159 221.306 35.0213C220.546 35.0266 218.437 36.5946 218.45 38.5172C218.46 40.4452 220.582 41.9892 221.344 41.9892M249.246 32.9839C249.246 32.9839 230.649 15.2466 230.036 14.8039C229.422 14.3599 226.793 14.3866 225.668 15.9399C224.538 17.5039 225.344 20.0066 225.958 20.4493C226.57 20.8959 249.246 32.9839 249.246 32.9839ZM291.356 30.8773C292.076 30.6466 293.622 28.5199 293.04 26.6906C292.458 24.8519 289.972 24.0106 289.246 24.2372C288.525 24.4666 265.316 35.4986 265.316 35.4986C265.316 35.4986 290.634 31.1053 291.356 30.8773ZM265.753 38.3239C265.753 38.3239 291.185 42.0052 291.944 42.0106C292.702 42.0146 294.829 40.4719 294.846 38.5479C294.86 36.6239 292.756 35.0506 291.997 35.0452C291.241 35.0372 265.753 38.3252 265.753 38.3252M287.34 20.4746C287.96 20.0319 288.766 17.5306 287.646 15.9693C286.524 14.4053 283.896 14.3746 283.281 14.8146C282.664 15.2559 264.022 32.9479 264.022 32.9479C264.022 32.9479 286.729 20.9146 287.34 20.4746ZM280.304 11.8292C280.752 11.2186 280.742 8.59058 279.192 7.45325C277.641 6.31458 275.13 7.09992 274.682 7.71192C274.232 8.32258 262.001 30.9226 262.001 30.9226C262.001 30.9226 279.852 12.4399 280.304 11.8292ZM270.926 5.79592C271.161 5.07726 270.34 2.58259 268.513 1.97992C266.681 1.37992 264.544 2.90526 264.304 3.62659C264.069 4.34659 259.454 29.6279 259.454 29.6279C259.454 29.6279 270.69 6.51459 270.926 5.79592ZM256.686 33.1079C256.014 33.1023 255.347 33.2294 254.724 33.4819C254.1 33.7345 253.533 34.1075 253.054 34.5797C252.575 35.0518 252.194 35.6138 251.933 36.2334C251.672 36.853 251.535 37.5181 251.532 38.1906C251.526 38.8624 251.653 39.5286 251.905 40.1514C252.157 40.7741 252.53 41.341 253.001 41.8198C253.472 42.2986 254.033 42.6799 254.652 42.9418C255.27 43.2038 255.934 43.3414 256.606 43.3466C257.964 43.3562 259.271 42.8267 260.239 41.8743C261.207 40.922 261.758 39.6245 261.77 38.2666C261.78 36.9085 261.249 35.6023 260.296 34.635C259.343 33.6678 258.044 33.1185 256.686 33.1079Z" fill="#ED1C24"/>
</svg>
